<svg xmlns="http://www.w3.org/2000/svg" width="512" height="512" viewBox="0 0 512 512">
  <path fill="white" d="M256 144c-61.9 0-112 50.1-112 112s50.1 112 112 112 112-50.1 112-112-50.1-112-112-112zm0 176a64 64 0 1 1 0-128 64 64 0 0 1 0 128z"></path>
  <path fill="white" d="M256 80c-119.3 0-221.6 70.7-255.9 172.4a32 32 0 0 0 0 23.2C34.4 377.3 136.7 448 256 448s221.6-70.7 255.9-172.4a32 32 0 0 0 0-23.2C477.6 150.7 375.3 80 256 80zm0 320c-91.6 0-174.6-55.6-208.1-144C81.4 167.6 164.4 112 256 112s174.6 55.6 208.1 144C430.6 344.4 347.6 400 256 400z"></path>
</svg>
